# xmcd
#
# Track frame offsets:
#	150
#	15358
#	32150
#	43775
#	61970
#	74628
#	84850
#	98886
#	110122
#	127683
#	140046
#	159971
#	171050
#	181878
#	195929
#	209925
#	225479
#	244700
#	267992
#	282424
#
# Disc length: 3976
#
# Revision: 1
# Processed by: cddbd v1.5.1PL0 Copyright (c) Steve Scherf et al.
# Submitted via: dBpowerAMP V4.0
# Normalized: r0:DSETVAR1,TDELIM( - )
#
DISCID=180f8614
DTITLE=Various Artist - Cowboy Forever
DYEAR=2000
DGENRE=Country
TTITLE0=Billy Ray Cyrus - Achy Break Heart
TTITLE1=Alan Jackson - I´ll Try
TTITLE2=Alan jackson - Little Bitty
TTITLE3=Shania Twain - Any Man of mine
TTITLE4=Pam Tillis - mi Loca - Crasy Life
TTITLE5=George Strait - Heartland
TTITLE6=Terri Clark - Better Things To Do
TTITLE7=Daron Norwod - Bad Dog No Biscuit
TTITLE8=Alan Jackson - Chottahoochee
TTITLE9=Clay Walker - Only on Days Thatend In Y
TTITLE10=Garth Brooks - Aint Going Down - Til the Sun Comes Up
TTITLE11=Rick Trevino - I Want a Girl In a Pick-Up Truck
TTITLE12=Alan Jackson - Tall, Tall Trees
TTITLE13=Chris Ward - When You get To BeYou
TTITLE14=Faith Hill - Lets go to Vegas
TTITLE15=Shania Twain - Im Hold on to Love - to Save my Life
TTITLE16=Shania Twain - You Win My Love
TTITLE17=Alabama - Dixieland Delight
TTITLE18=Bellamy Brothers - Get a Little Crasy
TTITLE19=Chery Ascheratt - Walking Away a Winner
EXTD=Cawboy Forever
EXTT0=
EXTT1=
EXTT2=
EXTT3=
EXTT4=
EXTT5=
EXTT6=
EXTT7=
EXTT8=
EXTT9=
EXTT10=
EXTT11=
EXTT12=
EXTT13=
EXTT14=
EXTT15=
EXTT16=
EXTT17=
EXTT18=
EXTT19=
PLAYORDER=
